<?xml version="1.0" encoding="UTF-8"?>
<svg version="1.1" xmlns="http://www.w3.org/2000/svg" width="512" height="512">
<path d="M0 0 C2.50324395 1.53373655 4.88248658 3.1599127 7.26269531 4.87695312 C19.68820884 13.74575631 31.17493646 15.92967364 46.15234375 18.06494141 C86.99737068 24.48246249 127.20289528 43.25348598 159.62988281 68.61132812 C160.50257813 69.28421875 161.37527344 69.95710938 162.27441406 70.65039062 C164.75858164 72.60080329 167.1977963 74.59638356 169.62988281 76.61132812 C170.62632812 77.42214844 171.62277344 78.23296875 172.64941406 79.06835938 C187.25856409 91.138486 201.02106829 104.62153503 212.62988281 119.61132812 C214.23066399 121.48921932 215.83504567 123.3640453 217.44238281 125.23632812 C234.32024667 145.50018319 248.07132194 168.50129964 260.62988281 191.61132812 C261.15549805 192.57603027 261.68111328 193.54073242 262.22265625 194.53466797 C271.93707535 212.48392541 280.34517355 230.97450493 288.62988281 249.61132812 C289.22411369 250.94678064 289.81835188 252.2822299 290.41259766 253.61767578 C294.74814491 263.36600122 294.74814491 263.36600122 296.86254883 268.16162109 C297.74329894 270.1561554 298.63323097 272.14667625 299.53491211 274.13183594 C300.39950255 276.08964652 301.1612468 278.09285701 301.88378906 280.10742188 C304.62959204 284.04491562 308.39378545 284.95285275 312.81738281 286.48632812 C314.64233326 287.16709874 316.46523707 287.85337906 318.28613281 288.54492188 C319.19234375 288.88765137 320.09855469 289.23038086 321.03222656 289.58349609 C326.77061333 291.85404199 332.21121437 294.72310541 337.66894531 297.59033203 C339.65534779 298.62458691 341.65595029 299.62575778 343.66113281 300.62304688 C367.24715795 312.51644924 388.82517867 328.74264907 408.29785156 346.49804688 C410.38023018 348.38509349 412.49491345 350.22191045 414.62988281 352.04882812 C419.53385838 356.33607654 424.15308319 360.88112475 428.62988281 365.61132812 C429.20609375 366.21976562 429.78230469 366.82820313 430.37597656 367.45507812 C433.76433442 371.52494705 434.21278357 375.10091562 434.29394531 380.18164062 C433.2715314 383.92247271 431.70880854 385.24086167 428.62988281 387.61132812 C425.1003883 389.14685156 421.46136129 390.15251488 417.75488281 391.17382812 C416.06818481 391.65722656 416.06818481 391.65722656 414.34741211 392.15039062 C394.5577347 397.72125612 374.56994665 402.61288007 354.62988281 407.61132812 C355.58100431 408.89012725 356.53360173 410.16782872 357.48681641 411.44506836 C358.0171347 412.15670639 358.547453 412.86834442 359.09384155 413.60154724 C368.49917491 425.90763542 381.77891987 434.45905145 394.16796875 443.45410156 C431.64812042 470.68427855 431.64812042 470.68427855 434.31347656 481.34570312 C434.52241367 485.62574804 434.00856385 487.99281577 431.75488281 491.67382812 C428.79347337 494.37393673 427.17055305 494.76630595 423.25488281 494.79882812 C422.48402344 494.81300781 421.71316406 494.8271875 420.91894531 494.84179688 C417.22752882 494.47013549 415.31105434 493.41634902 412.91113281 490.58007812 C412.32332031 489.76539063 411.73550781 488.95070313 411.12988281 488.11132812 C403.59432208 478.46415422 393.49621471 471.70501757 383.62988281 464.64379883 C371.01053642 455.61129555 358.82116442 446.38489471 347.62988281 435.61132812 C346.61861328 434.67740234 346.61861328 434.67740234 345.58691406 433.72460938 C336.34254982 424.97001277 327.12622273 411.63593755 326.19238281 398.61132812 C326.33623414 395.02874504 327.22789413 392.48688457 329.79907227 389.83520508 C332.06363126 388.321372 334.01535871 387.82455373 336.67285156 387.21679688 C337.74293457 386.96615479 338.81301758 386.7155127 339.91552734 386.45727539 C341.14126465 386.17811279 342.36700195 385.8989502 343.62988281 385.61132812 C345.04150926 385.27931709 346.45278945 384.9458313 347.86376953 384.61108398 C350.98727462 383.87046603 354.11158861 383.13346219 357.23681641 382.40014648 C371.7523711 378.99259633 386.25340341 375.57382037 400.62988281 371.61132812 C373.35737843 344.14261868 339.39770633 321.35501468 303.17285156 307.49023438 C301.8155896 306.96864746 301.8155896 306.96864746 300.4309082 306.43652344 C298.69859023 305.7809578 296.95970219 305.14239423 295.21362305 304.52441406 C287.6695779 301.7020482 284.08860472 297.12599939 280.70288086 289.95678711 C280.3694165 289.22403564 280.03595215 288.49128418 279.69238281 287.73632812 C279.31960205 286.93461182 278.94682129 286.13289551 278.56274414 285.30688477 C274.54622273 276.58770291 270.74426064 267.77130173 266.91226196 258.96994019 C258.15015904 238.84834516 249.22580147 218.84810984 238.62988281 199.61132812 C238.18741211 198.79954102 237.74494141 197.98775391 237.2890625 197.15136719 C225.8141701 176.1828006 212.63665178 156.22429779 197.62988281 137.61132812 C197.17339355 137.04446289 196.7169043 136.47759766 196.24658203 135.89355469 C152.40784175 81.90621795 90.87437864 45.26027582 21.12988281 37.61132812 C14.88531282 36.8368619 10.78028894 35.14254303 5.62988281 31.61132812 C3.48710792 30.21049596 1.34189638 28.81422986 -0.80761719 27.42382812 C-1.39567139 27.04170166 -1.98372559 26.6595752 -2.58959961 26.26586914 C-26.73762156 9.87523105 -26.73762156 9.87523105 -54.37011719 5.61132812 C-55.92901733 7.17022827 -55.76599801 8.6256886 -55.93261719 10.79882812 C-55.77046778 22.21414625 -46.01895478 32.70163946 -39.44042969 41.49023438 C-16.27795265 72.46225308 -16.27795265 72.46225308 -12.98339844 92.17407227 C-8.14210336 120.10824565 4.74555359 153.09855908 23.62988281 174.61132812 C27.16236201 178.91395144 29.09692917 181.38287213 29.01806641 187.12304688 C28.17910724 192.50082792 25.34292602 197.28327719 22.94238281 202.11132812 C7.55532779 234.3674203 2.47242043 272.62936929 13.79785156 307.17382812 C15.99393075 312.85947002 18.82897541 317.83533 22.39550781 322.77148438 C23.62988281 324.61132812 23.62988281 324.61132812 24.62988281 327.61132812 C26.4292086 328.67849516 26.4292086 328.67849516 28.62988281 329.61132812 C29.80550781 330.38476562 29.80550781 330.38476562 31.00488281 331.17382812 C33.91450895 332.76719482 36.35468455 333.23049112 39.62988281 333.61132812 C41.87868027 326.65629418 43.50099559 319.74614076 44.75488281 312.54882812 C44.92375 311.62005859 45.09261719 310.69128906 45.26660156 309.734375 C47.11927682 299.34042914 47.8541072 289.15384632 48.14746094 278.60742188 C48.34311648 273.2841146 48.73068182 268.61233836 50.62988281 263.61132812 C54.40570064 260.10521157 57.53222822 259.15853673 62.50488281 258.98242188 C65.95122145 260.00238607 68.33423357 261.92977914 70.62988281 264.61132812 C72.18870201 267.56037604 73.20560103 270.63824086 74.25488281 273.79882812 C89.46163652 316.25491617 114.00072697 360.78806575 150.88769531 388.27929688 C154.9701989 391.40067294 156.46110258 393.42986646 157.19238281 398.54882812 C156.96976283 403.25056224 154.92757628 405.39215117 151.62988281 408.61132812 C148.33156196 410.26048855 145.18186111 410.22479588 141.62988281 409.61132812 C134.14269123 406.22195012 128.13199131 399.80563138 122.26855469 394.18261719 C121.16269542 393.12223127 120.05188057 392.06699268 118.93652344 391.01660156 C109.38243805 381.99689723 101.25971833 372.30018831 93.62988281 361.61132812 C92.96545166 360.68199463 92.96545166 360.68199463 92.28759766 359.73388672 C83.35856111 347.10014043 75.37383596 333.53359072 68.62988281 319.61132812 C68.29988281 319.61132812 67.96988281 319.61132812 67.62988281 319.61132812 C67.41074219 320.55492187 67.19160156 321.49851562 66.96582031 322.47070312 C64.16720721 334.0095073 60.7073539 346.3094317 50.62988281 353.61132812 C42.99908074 357.9583834 35.49373797 357.30510613 27.25488281 355.11132812 C11.85187773 350.00098532 2.74250713 338.28934074 -4.47412109 324.41064453 C-11.39377601 310.51477076 -14.49091327 295.12014337 -14.57324219 279.66210938 C-14.5817923 278.38305977 -14.5817923 278.38305977 -14.59051514 277.07817078 C-14.59992683 275.27372459 -14.60648381 273.46926151 -14.61035156 271.66479492 C-14.61992874 268.97672005 -14.65093378 266.28945419 -14.68261719 263.6015625 C-14.82873222 239.73478213 -10.32854708 218.25968999 -0.22900391 196.65258789 C0.15497559 195.80881592 0.53895508 194.96504395 0.93457031 194.09570312 C1.28503418 193.35030273 1.63549805 192.60490234 1.99658203 191.83691406 C2.78429815 189.0686719 2.43034646 187.35125621 1.62988281 184.61132812 C0.35872982 182.50264099 0.35872982 182.50264099 -1.30761719 180.42382812 C-18.40859438 156.65695983 -30.62932762 126.08851303 -35.49511719 97.29882812 C-36.85584287 89.37096379 -38.68871314 83.28561904 -43.37011719 76.61132812 C-43.78293945 76.0096582 -44.19576172 75.40798828 -44.62109375 74.78808594 C-48.13085902 69.6759826 -51.7440824 64.64127233 -55.37011719 59.61132812 C-78.99923798 26.69882041 -78.99923798 26.69882041 -78.80761719 12.79882812 C-78.79859375 12.0127417 -78.78957031 11.22665527 -78.78027344 10.41674805 C-78.52704548 1.86063246 -77.03188507 -5.2675214 -70.68261719 -11.38867188 C-50.06592749 -29.04750673 -18.85517119 -10.90242251 0 0 Z " fill="#1C9BBC" transform="translate(78.3701171875,17.388671875)"/>
<path d="M0 0 C7.24044998 4.35413772 11.80426754 10.50918596 15.04296875 18.25390625 C16.96629349 30.43496295 16.96629349 30.43496295 13.85546875 35.87890625 C10.71878259 38.57994155 8.85664846 39.6532089 4.73046875 40.19140625 C0.76059361 39.71502123 -1.28989661 38.28600199 -4.39453125 35.81640625 C-6.27953989 32.98889328 -6.81770782 31.53988571 -7.45703125 28.31640625 C-7.9815315 25.71557857 -8.552496 23.342512 -9.39453125 20.81640625 C-12.02293205 19.92898793 -12.02293205 19.92898793 -15.14453125 19.37890625 C-19.81294379 18.32421138 -23.0301139 17.41285238 -26.39453125 13.81640625 C-28.25308407 10.09930062 -27.97361564 5.86363344 -27.39453125 1.81640625 C-20.3259419 -7.54469857 -9.24724321 -4.57082332 0 0 Z " fill="#28A1BF" transform="translate(123.39453125,78.18359375)"/>
</svg>
