<?xml version="1.0" encoding="UTF-8"?>
<svg version="1.1" xmlns="http://www.w3.org/2000/svg" width="512" height="512">
<path d="M0 0 C1.01352539 0.25652344 2.02705078 0.51304687 3.07128906 0.77734375 C11.66874271 2.98224095 19.84728545 5.47992414 28 9 C29.427916 9.48824972 30.86058885 9.96273269 32.296875 10.42578125 C44.91140888 14.54072552 57.23351323 19.95032303 68.30859375 27.2734375 C70.9986294 29.06754716 70.9986294 29.06754716 74.03515625 30.51171875 C76.90798294 31.95380962 79.39421636 33.56250504 82 35.4375 C82.85980469 36.04980469 83.71960938 36.66210938 84.60546875 37.29296875 C85.39566406 37.85628906 86.18585938 38.41960938 87 39 C89.84169462 40.95405031 92.70445217 42.82816987 95.6875 44.5625 C98 46 98 46 99.3125 47.31640625 C101.51313695 49.51194913 103.89781849 51.41787225 106.3125 53.375 C107.28445313 54.16777344 108.25640625 54.96054687 109.2578125 55.77734375 C110.85083574 57.0685549 112.44779287 58.35499929 114.0546875 59.62890625 C115.404486 60.71068256 116.70906076 61.84862176 118 63 C118 63.66 118 64.32 118 65 C118.639375 65.268125 119.27875 65.53625 119.9375 65.8125 C122 67 122 67 123 70 C123.66 70.33 124.32 70.66 125 71 C125.66 71.33 126.32 71.66 127 72 C127.33 72.99 127.66 73.98 128 75 C128.99 75.33 129.98 75.66 131 76 C132.52216957 77.67324633 133.97187505 79.41324132 135.375 81.1875 C136.16519531 82.18007812 136.95539063 83.17265625 137.76953125 84.1953125 C138.50558594 85.12085937 139.24164063 86.04640625 140 87 C141.01622986 88.19144191 142.03589196 89.37998874 143.0625 90.5625 C145 93 145 93 145 95 C145.99 95.33 146.98 95.66 148 96 C149.0597649 97.62931769 150.05179177 99.30333299 151 101 C152.80059633 103.55150004 154.63472134 106.07581044 156.4765625 108.59765625 C157.88450108 110.81786709 158.56157466 112.43461928 159 115 C159.66 115 160.32 115 161 115 C161.27972656 115.51046875 161.55945313 116.0209375 161.84765625 116.546875 C164.90960518 122.09973415 168.09337671 127.56767424 171.3515625 133.0078125 C173.14665581 136.26620462 174.58162907 139.56118923 176 143 C176.54914867 144.3035247 177.09863866 145.60690565 177.6484375 146.91015625 C185.77848994 166.39006076 192.4094888 185.87204241 195.63807678 206.77412415 C195.89836405 208.3749254 196.18625642 209.97132757 196.49168396 211.56413269 C197.92210382 219.27479846 198.32122389 226.72718911 198.3359375 234.55859375 C198.3425943 235.82357193 198.3492511 237.08855011 198.35610962 238.39186096 C198.36617955 241.05687652 198.37180082 243.72148341 198.37060547 246.38647461 C198.37044379 249.07132158 198.38420687 251.75547985 198.41162109 254.44018555 C198.55956518 270.06942111 198.04766808 284.79042404 194.43943787 300.03408813 C193.84545675 302.69137968 193.47061047 305.36299523 193.125 308.0625 C190.96410005 321.41035987 186.08730834 334.52234507 181 347 C180.6390625 347.93585938 180.278125 348.87171875 179.90625 349.8359375 C178.2333937 354.15748293 176.4730882 358.06554149 174 362 C173.71125 362.7425 173.4225 363.485 173.125 364.25 C171.44031333 368.36812297 169.21913728 372.14896233 167 376 C166.35224609 377.12728516 166.35224609 377.12728516 165.69140625 378.27734375 C161.46956921 385.46523061 156.82571353 392.36788136 152.15917969 399.27148438 C151.05025928 400.92505567 149.96590609 402.59502308 148.8828125 404.265625 C147.34103638 406.50471894 145.94006216 408.14450465 144 410 C142.5262445 411.7580192 141.06946481 413.53033608 139.625 415.3125 C138.83222656 416.28445313 138.03945313 417.25640625 137.22265625 418.2578125 C135.9314451 419.85083574 134.64500071 421.44779287 133.37109375 423.0546875 C132.28931744 424.404486 131.15137824 425.70906076 130 427 C129.34 427 128.68 427 128 427 C127.731875 427.639375 127.46375 428.27875 127.1875 428.9375 C126 431 126 431 123 432 C122.33216707 433.33274956 121.66572555 434.66619652 121 436 C116.69492958 440.39951438 111.98766733 444.41705141 106.9375 447.9375 C103.96252338 449.6790963 103.96252338 449.6790963 103 452 C101.34427214 453.01800935 99.67529898 454.01453001 98 455 C96.11028672 456.39698002 94.23618513 457.81523195 92.375 459.25 C86.76164354 463.49441291 81.00276719 467.33311138 75 471 C74.13246094 471.53625 73.26492188 472.0725 72.37109375 472.625 C68.05312395 475.26192812 63.71992863 477.75154527 59.16015625 479.9453125 C57.56933704 480.7220235 55.99602386 481.53484269 54.43359375 482.3671875 C47.1409532 486.19706404 39.73217626 488.9858098 31.95703125 491.62890625 C28.93490417 492.65890371 25.99682422 493.80058855 23.0625 495.0625 C15.55478076 498.07554819 7.85380026 500.12689485 0 502 C-0.94069336 502.23428711 -1.88138672 502.46857422 -2.85058594 502.70996094 C-38.06038469 511.11061541 -79.96224897 510.99562424 -115 502 C-115.99950684 501.75942871 -116.99901367 501.51885742 -118.02880859 501.27099609 C-134.0056974 497.41200675 -149.14382858 492.02683207 -164 485 C-165.33140151 484.39574593 -166.66348686 483.79299733 -167.99609375 483.19140625 C-176.97779743 479.10237279 -186.03603217 474.90026139 -194 469 C-194 468.34 -194 467.68 -194 467 C-194.71542969 466.90589844 -195.43085938 466.81179688 -196.16796875 466.71484375 C-199.4695953 465.88146767 -201.54650916 464.53352459 -204.3125 462.5625 C-205.19550781 461.94503906 -206.07851562 461.32757813 -206.98828125 460.69140625 C-207.65214844 460.13324219 -208.31601563 459.57507813 -209 459 C-209 458.34 -209 457.68 -209 457 C-209.59006836 456.89059082 -210.18013672 456.78118164 -210.78808594 456.66845703 C-213.25490232 455.92296661 -214.47524054 455.00768277 -216.390625 453.3046875 C-217.01340332 452.75748047 -217.63618164 452.21027344 -218.27783203 451.64648438 C-218.92864746 451.06189453 -219.57946289 450.47730469 -220.25 449.875 C-221.26296143 448.9787793 -221.26296143 448.9787793 -222.29638672 448.06445312 C-223.62332743 446.89021464 -224.94811599 445.71353864 -226.27050781 444.53417969 C-228.19671562 442.82549958 -230.15881756 441.16239459 -232.125 439.5 C-240.8257408 431.84183163 -248.8705879 423.53810277 -256.0546875 414.4453125 C-257.82260048 412.22299618 -259.6640232 410.1103998 -261.5625 408 C-264 405 -264 405 -264 402 C-264.66 402 -265.32 402 -266 402 C-279.67668489 385.89863967 -290.74198574 363.63145554 -298 344 C-298.22155762 343.40622559 -298.44311523 342.81245117 -298.67138672 342.20068359 C-302.71943604 331.28960876 -306.31653089 320.32789513 -309 309 C-309.23138672 308.07477539 -309.46277344 307.14955078 -309.70117188 306.19628906 C-318.18485755 270.87058975 -318.25534988 228.13473203 -309 193 C-308.61521484 191.47971191 -308.61521484 191.47971191 -308.22265625 189.92871094 C-306.02279121 181.35087899 -303.57263468 173.10522937 -300 165 C-299.4975964 163.57045547 -299.01462348 162.13373349 -298.5625 160.6875 C-292.49426043 142.20270871 -282.98027154 123.79472396 -271.5 108.0625 C-270.14964265 106.20575865 -268.91016593 104.31688119 -267.6875 102.375 C-267.130625 101.59125 -266.57375 100.8075 -266 100 C-265.34 100 -264.68 100 -264 100 C-263.8860791 99.40541992 -263.7721582 98.81083984 -263.65478516 98.19824219 C-262.94921766 95.82951372 -262.14351531 94.66893913 -260.5234375 92.828125 C-259.77066528 91.96199585 -259.77066528 91.96199585 -259.00268555 91.07836914 C-258.46554932 90.47500732 -257.92841309 89.87164551 -257.375 89.25 C-256.82303955 88.6202124 -256.2710791 87.9904248 -255.70239258 87.34155273 C-254.61329188 86.09959018 -253.52165512 84.85984604 -252.42724609 83.62255859 C-250.81811206 81.79322148 -249.25564248 79.92698437 -247.6875 78.0625 C-238.59454808 67.77775342 -228.80261591 58.41531187 -217.828125 50.171875 C-215.08157762 48.18002109 -215.08157762 48.18002109 -213.296875 46.203125 C-212 45 -212 45 -209 45 C-208.67 44.01 -208.34 43.02 -208 42 C-202.47284085 37.303052 -196.05203242 33.78750786 -189.640625 30.45703125 C-186.91762215 29.01005554 -186.91762215 29.01005554 -184.19140625 27.07421875 C-180.49059095 24.6689153 -176.69275986 22.83479936 -172.6875 21 C-171.92622803 20.64752197 -171.16495605 20.29504395 -170.38061523 19.93188477 C-168.89452088 19.24527256 -167.40734497 18.560995 -165.91894531 17.87939453 C-164.4505754 17.20648506 -162.98611396 16.52504077 -161.5234375 15.83984375 C-159.36567497 14.84692912 -157.19239422 13.91434736 -155 13 C-154.4126709 12.75427246 -153.8253418 12.50854492 -153.22021484 12.25537109 C-141.06268375 7.21788237 -128.79196004 3.10030904 -116 0 C-115.02933594 -0.24556641 -114.05867187 -0.49113281 -113.05859375 -0.74414062 C-77.83549494 -9.26876032 -35.03177153 -9.22822756 0 0 Z " fill="#49A32B" transform="translate(314,5)"/>
<path d="M0 0 C1.01352539 0.25652344 2.02705078 0.51304687 3.07128906 0.77734375 C11.66874271 2.98224095 19.84728545 5.47992414 28 9 C29.427916 9.48824972 30.86058885 9.96273269 32.296875 10.42578125 C44.91140888 14.54072552 57.23351323 19.95032303 68.30859375 27.2734375 C70.9986294 29.06754716 70.9986294 29.06754716 74.03515625 30.51171875 C76.90798294 31.95380962 79.39421636 33.56250504 82 35.4375 C82.85980469 36.04980469 83.71960938 36.66210938 84.60546875 37.29296875 C85.39566406 37.85628906 86.18585938 38.41960938 87 39 C89.84169462 40.95405031 92.70445217 42.82816987 95.6875 44.5625 C98 46 98 46 99.3125 47.31640625 C101.51313695 49.51194913 103.89781849 51.41787225 106.3125 53.375 C107.28445313 54.16777344 108.25640625 54.96054687 109.2578125 55.77734375 C110.85083574 57.0685549 112.44779287 58.35499929 114.0546875 59.62890625 C115.404486 60.71068256 116.70906076 61.84862176 118 63 C118 63.66 118 64.32 118 65 C118.639375 65.268125 119.27875 65.53625 119.9375 65.8125 C122 67 122 67 123 70 C123.66 70.33 124.32 70.66 125 71 C125.66 71.33 126.32 71.66 127 72 C127.33 72.99 127.66 73.98 128 75 C128.99 75.33 129.98 75.66 131 76 C132.52216957 77.67324633 133.97187505 79.41324132 135.375 81.1875 C136.16519531 82.18007812 136.95539063 83.17265625 137.76953125 84.1953125 C138.50558594 85.12085937 139.24164063 86.04640625 140 87 C141.01622986 88.19144191 142.03589196 89.37998874 143.0625 90.5625 C145 93 145 93 145 95 C145.99 95.33 146.98 95.66 148 96 C149.0597649 97.62931769 150.05179177 99.30333299 151 101 C152.80059633 103.55150004 154.63472134 106.07581044 156.4765625 108.59765625 C157.88450108 110.81786709 158.56157466 112.43461928 159 115 C159.66 115 160.32 115 161 115 C161.27972656 115.51046875 161.55945313 116.0209375 161.84765625 116.546875 C164.90960518 122.09973415 168.09337671 127.56767424 171.3515625 133.0078125 C173.14665581 136.26620462 174.58162907 139.56118923 176 143 C176.54914867 144.3035247 177.09863866 145.60690565 177.6484375 146.91015625 C185.77848994 166.39006076 192.4094888 185.87204241 195.63807678 206.77412415 C195.89836405 208.3749254 196.18625642 209.97132757 196.49168396 211.56413269 C197.92210382 219.27479846 198.32122389 226.72718911 198.3359375 234.55859375 C198.3425943 235.82357193 198.3492511 237.08855011 198.35610962 238.39186096 C198.36617955 241.05687652 198.37180082 243.72148341 198.37060547 246.38647461 C198.37044379 249.07132158 198.38420687 251.75547985 198.41162109 254.44018555 C198.55956518 270.06942111 198.04766808 284.79042404 194.43943787 300.03408813 C193.84545675 302.69137968 193.47061047 305.36299523 193.125 308.0625 C190.96410005 321.41035987 186.08730834 334.52234507 181 347 C180.6390625 347.93585938 180.278125 348.87171875 179.90625 349.8359375 C178.2333937 354.15748293 176.4730882 358.06554149 174 362 C173.71125 362.7425 173.4225 363.485 173.125 364.25 C171.44031333 368.36812297 169.21913728 372.14896233 167 376 C166.35224609 377.12728516 166.35224609 377.12728516 165.69140625 378.27734375 C161.46956921 385.46523061 156.82571353 392.36788136 152.15917969 399.27148438 C151.05025928 400.92505567 149.96590609 402.59502308 148.8828125 404.265625 C147.34103638 406.50471894 145.94006216 408.14450465 144 410 C142.5262445 411.7580192 141.06946481 413.53033608 139.625 415.3125 C138.83222656 416.28445313 138.03945313 417.25640625 137.22265625 418.2578125 C135.9314451 419.85083574 134.64500071 421.44779287 133.37109375 423.0546875 C132.28931744 424.404486 131.15137824 425.70906076 130 427 C129.34 427 128.68 427 128 427 C127.731875 427.639375 127.46375 428.27875 127.1875 428.9375 C126 431 126 431 123 432 C122.33216707 433.33274956 121.66572555 434.66619652 121 436 C116.69492958 440.39951438 111.98766733 444.41705141 106.9375 447.9375 C103.96252338 449.6790963 103.96252338 449.6790963 103 452 C101.34427214 453.01800935 99.67529898 454.01453001 98 455 C96.11028672 456.39698002 94.23618513 457.81523195 92.375 459.25 C86.76164354 463.49441291 81.00276719 467.33311138 75 471 C74.13246094 471.53625 73.26492188 472.0725 72.37109375 472.625 C68.05312395 475.26192812 63.71992863 477.75154527 59.16015625 479.9453125 C57.56933704 480.7220235 55.99602386 481.53484269 54.43359375 482.3671875 C47.1409532 486.19706404 39.73217626 488.9858098 31.95703125 491.62890625 C28.93490417 492.65890371 25.99682422 493.80058855 23.0625 495.0625 C15.55478076 498.07554819 7.85380026 500.12689485 0 502 C-0.94069336 502.23428711 -1.88138672 502.46857422 -2.85058594 502.70996094 C-38.06038469 511.11061541 -79.96224897 510.99562424 -115 502 C-115.99950684 501.75942871 -116.99901367 501.51885742 -118.02880859 501.27099609 C-134.0056974 497.41200675 -149.14382858 492.02683207 -164 485 C-165.33140151 484.39574593 -166.66348686 483.79299733 -167.99609375 483.19140625 C-176.97779743 479.10237279 -186.03603217 474.90026139 -194 469 C-194 468.34 -194 467.68 -194 467 C-194.71542969 466.90589844 -195.43085938 466.81179688 -196.16796875 466.71484375 C-199.4695953 465.88146767 -201.54650916 464.53352459 -204.3125 462.5625 C-205.19550781 461.94503906 -206.07851562 461.32757813 -206.98828125 460.69140625 C-207.65214844 460.13324219 -208.31601563 459.57507813 -209 459 C-209 458.34 -209 457.68 -209 457 C-209.59006836 456.89059082 -210.18013672 456.78118164 -210.78808594 456.66845703 C-213.25490232 455.92296661 -214.47524054 455.00768277 -216.390625 453.3046875 C-217.01340332 452.75748047 -217.63618164 452.21027344 -218.27783203 451.64648438 C-218.92864746 451.06189453 -219.57946289 450.47730469 -220.25 449.875 C-221.26296143 448.9787793 -221.26296143 448.9787793 -222.29638672 448.06445312 C-223.62332743 446.89021464 -224.94811599 445.71353864 -226.27050781 444.53417969 C-228.19671562 442.82549958 -230.15881756 441.16239459 -232.125 439.5 C-240.8257408 431.84183163 -248.8705879 423.53810277 -256.0546875 414.4453125 C-257.82260048 412.22299618 -259.6640232 410.1103998 -261.5625 408 C-264 405 -264 405 -264 402 C-264.66 402 -265.32 402 -266 402 C-279.67668489 385.89863967 -290.74198574 363.63145554 -298 344 C-298.22155762 343.40622559 -298.44311523 342.81245117 -298.67138672 342.20068359 C-302.71943604 331.28960876 -306.31653089 320.32789513 -309 309 C-309.23138672 308.07477539 -309.46277344 307.14955078 -309.70117188 306.19628906 C-318.18485755 270.87058975 -318.25534988 228.13473203 -309 193 C-308.61521484 191.47971191 -308.61521484 191.47971191 -308.22265625 189.92871094 C-306.02279121 181.35087899 -303.57263468 173.10522937 -300 165 C-299.4975964 163.57045547 -299.01462348 162.13373349 -298.5625 160.6875 C-292.49426043 142.20270871 -282.98027154 123.79472396 -271.5 108.0625 C-270.14964265 106.20575865 -268.91016593 104.31688119 -267.6875 102.375 C-267.130625 101.59125 -266.57375 100.8075 -266 100 C-265.34 100 -264.68 100 -264 100 C-263.8860791 99.40541992 -263.7721582 98.81083984 -263.65478516 98.19824219 C-262.94921766 95.82951372 -262.14351531 94.66893913 -260.5234375 92.828125 C-259.77066528 91.96199585 -259.77066528 91.96199585 -259.00268555 91.07836914 C-258.46554932 90.47500732 -257.92841309 89.87164551 -257.375 89.25 C-256.82303955 88.6202124 -256.2710791 87.9904248 -255.70239258 87.34155273 C-254.61329188 86.09959018 -253.52165512 84.85984604 -252.42724609 83.62255859 C-250.81811206 81.79322148 -249.25564248 79.92698437 -247.6875 78.0625 C-238.59454808 67.77775342 -228.80261591 58.41531187 -217.828125 50.171875 C-215.08157762 48.18002109 -215.08157762 48.18002109 -213.296875 46.203125 C-212 45 -212 45 -209 45 C-208.67 44.01 -208.34 43.02 -208 42 C-202.47284085 37.303052 -196.05203242 33.78750786 -189.640625 30.45703125 C-186.91762215 29.01005554 -186.91762215 29.01005554 -184.19140625 27.07421875 C-180.49059095 24.6689153 -176.69275986 22.83479936 -172.6875 21 C-171.92622803 20.64752197 -171.16495605 20.29504395 -170.38061523 19.93188477 C-168.89452088 19.24527256 -167.40734497 18.560995 -165.91894531 17.87939453 C-164.4505754 17.20648506 -162.98611396 16.52504077 -161.5234375 15.83984375 C-159.36567497 14.84692912 -157.19239422 13.91434736 -155 13 C-154.4126709 12.75427246 -153.8253418 12.50854492 -153.22021484 12.25537109 C-141.06268375 7.21788237 -128.79196004 3.10030904 -116 0 C-115.02933594 -0.24556641 -114.05867187 -0.49113281 -113.05859375 -0.74414062 C-77.83549494 -9.26876032 -35.03177153 -9.22822756 0 0 Z M-96 32 C-97.24910156 32.17789063 -98.49820313 32.35578125 -99.78515625 32.5390625 C-106.07117139 33.47679927 -111.95788231 35.05886717 -118 37 C-118.92683594 37.26425781 -119.85367188 37.52851562 -120.80859375 37.80078125 C-176.39626624 53.87517826 -225.06021824 93.56752616 -253.15673828 144.07958984 C-275.42112353 185.82407363 -285.92529521 233.93444316 -278 281 C-277.75210979 282.7389617 -277.50895797 284.47860282 -277.26953125 286.21875 C-277.01372902 288.04176618 -276.75722522 289.86468406 -276.5 291.6875 C-276.32247192 292.96403442 -276.32247192 292.96403442 -276.14135742 294.26635742 C-275.51930775 298.46888284 -274.72473429 302.08779783 -273 306 C-272.67540498 307.38854536 -272.38286526 308.78502874 -272.125 310.1875 C-271.23033673 314.43538939 -269.80600086 318.26616803 -268.09765625 322.25 C-267.1872153 324.53096238 -266.42916264 326.77835387 -265.69140625 329.1171875 C-256.75169236 356.24188854 -239.50370126 381.43439123 -220 402 C-218.86905334 403.32829305 -217.74367019 404.6613515 -216.625 406 C-193.74321178 432.19643978 -160.56780452 450.62110548 -128.25 462.25 C-127.27703979 462.60155151 -127.27703979 462.60155151 -126.28442383 462.96020508 C-116.2397872 466.45382822 -105.92715232 468.5032232 -95.4375 470.125 C-94.39142578 470.29386719 -93.34535156 470.46273438 -92.26757812 470.63671875 C-65.01694635 474.93321811 -31.22016069 476.44491134 -4.89794922 466.65869141 C-2.94144116 465.97967691 -1.03510077 465.56045308 1 465.1875 C5.63673153 464.21607209 10.03881534 462.69465812 14.5 461.125 C15.54994141 460.75797974 15.54994141 460.75797974 16.62109375 460.38354492 C54.66044579 446.76960084 90.03337868 421.77569986 115 390 C115.80308594 389.00226563 116.60617187 388.00453125 117.43359375 386.9765625 C130.35542112 370.75845394 142.60334437 351.78866864 149 332 C149.67268975 330.24425379 150.36016128 328.49409764 151.0625 326.75 C151.39121094 325.92886719 151.71992188 325.10773438 152.05859375 324.26171875 C152.85921972 322.33822315 153.73456841 320.44610528 154.625 318.5625 C156.08669997 314.77536826 156.77866005 311.23482214 157.375 307.234375 C157.92812822 304.37193647 158.65077613 301.67322374 159.45703125 298.875 C170.79365691 257.89775005 165.22827769 207.86615395 149 169 C148.42185547 167.51306641 148.42185547 167.51306641 147.83203125 165.99609375 C137.49329551 140.05022435 121.26477905 117.0559404 102 97 C101.26281738 96.22994629 101.26281738 96.22994629 100.51074219 95.44433594 C94.07285481 88.75804132 87.45819526 82.55143961 80 77 C79.36852051 76.52449707 78.73704102 76.04899414 78.08642578 75.55908203 C67.47566716 67.59549812 56.63820394 60.37385251 45 54 C44.39736328 53.66774414 43.79472656 53.33548828 43.17382812 52.99316406 C33.80477385 47.89084186 24.11019547 44.28673097 14 41 C13.29488281 40.77038574 12.58976562 40.54077148 11.86328125 40.30419922 C-24.02381561 28.70391075 -58.77015976 26.03889021 -96 32 Z " fill="#FEFEFE" transform="translate(314,5)"/>
<path d="M0 0 C4.063125 0.061875 8.12625 0.12375 12.3125 0.1875 C12.3125 9.7575 12.3125 19.3275 12.3125 29.1875 C2.0625 29.9375 2.0625 29.9375 -1.14941406 30.14355469 C-6.50759037 30.58655458 -6.50759037 30.58655458 -11.28515625 32.8671875 C-13.08668974 35.84799779 -13.48785783 38.08971974 -13.875 41.5625 C-13.94976562 42.23168457 -14.02453125 42.90086914 -14.1015625 43.59033203 C-14.83959599 51.05968409 -14.97232731 58.56398748 -15.1875 66.0625 C-16.4547906 109.79882429 -16.4547906 109.79882429 -31.6875 125.1875 C-33.96161395 127.28408089 -36.28512542 129.23557065 -38.6875 131.1875 C-39.0175 131.8475 -39.3475 132.5075 -39.6875 133.1875 C-38.883125 133.5278125 -38.883125 133.5278125 -38.0625 133.875 C-26.86543308 140.06285277 -21.31747556 151.36005131 -17.6875 163.1875 C-16.79178052 167.92148712 -16.36190006 172.63608457 -16 177.4375 C-15.88482062 178.7668826 -15.76825122 180.0961454 -15.65039062 181.42529297 C-15.0223064 188.73169166 -14.56403905 196.04490887 -14.16796875 203.3671875 C-14.12642166 204.11871094 -14.08487457 204.87023437 -14.04206848 205.64453125 C-13.84236988 209.29142047 -13.6595991 212.93765682 -13.5090332 216.58691406 C-13.41174927 218.55869629 -13.41174927 218.55869629 -13.3125 220.5703125 C-13.26351562 221.72934082 -13.21453125 222.88836914 -13.1640625 224.08251953 C-12.64350644 227.47413425 -11.71447544 229.44097324 -9.6875 232.1875 C-7.39441037 233.33404482 -5.88840344 233.38479117 -3.3359375 233.50390625 C-2.56942871 233.54201416 -1.80291992 233.58012207 -1.01318359 233.61938477 C-0.03945801 233.66248779 0.93426758 233.70559082 1.9375 233.75 C5.03125 233.894375 8.125 234.03875 11.3125 234.1875 C11.3125 243.4275 11.3125 252.6675 11.3125 262.1875 C3.66383781 266.01183109 -11.39766535 264.38118556 -19.40234375 262.0234375 C-27.32992714 259.14818259 -34.14766791 255.08808635 -38.875 247.9375 C-39.34292969 247.25171875 -39.81085938 246.5659375 -40.29296875 245.859375 C-49.34003737 228.52549562 -48.11697793 207.03516892 -48.43632507 188.04571533 C-48.07501017 170.7045222 -48.07501017 170.7045222 -54.6875 155.1875 C-59.27770462 151.4288052 -63.37238892 150.31362443 -69.0625 149.4375 C-70.42285109 149.21551043 -71.78302919 148.99245918 -73.14306641 148.76855469 C-74.89756104 148.48093262 -74.89756104 148.48093262 -76.6875 148.1875 C-76.71215392 143.64852295 -76.73033789 139.10958457 -76.74243164 134.57055664 C-76.7474714 133.02530234 -76.7543032 131.48005284 -76.76293945 129.93481445 C-76.77502076 127.71824971 -76.78073173 125.50174782 -76.78515625 123.28515625 C-76.79031754 122.5903566 -76.79547882 121.89555695 -76.80079651 121.17970276 C-76.80099277 119.5152067 -76.74939129 117.85084501 -76.6875 116.1875 C-74.80963733 114.30963733 -71.52468613 114.65727943 -69 114.375 C-62.17454984 113.43858153 -58.84336278 112.34336278 -54 107.5 C-50.71379546 101.71002057 -48.67571609 94.64765486 -48.42211914 87.99584961 C-48.38860855 87.17656479 -48.35509796 86.35727997 -48.3205719 85.51316833 C-48.28825974 84.63097122 -48.25594757 83.74877411 -48.22265625 82.83984375 C-48.14396733 80.93424119 -48.06518814 79.02864236 -47.98632812 77.12304688 C-47.86815242 74.14875605 -47.75189281 71.17440676 -47.63793945 68.19995117 C-47.24176215 58.0016083 -46.77574039 47.82984165 -45.7578125 37.671875 C-45.68494522 36.91023544 -45.61207794 36.14859589 -45.53700256 35.36387634 C-44.22933644 23.30726071 -39.0099248 14.64777596 -29.9375 6.8125 C-20.71558946 0.15223128 -11.08709076 -0.24085381 0 0 Z " fill="#FBFDFB" transform="translate(176.6875,123.8125)"/>
<path d="M0 0 C9.58459298 7.44155899 13.12418976 17.09522574 15.21875 28.72265625 C15.49612595 31.63595016 15.56457214 34.53176987 15.59765625 37.45703125 C15.61465073 38.25691467 15.6316452 39.0567981 15.64915466 39.88092041 C15.70168466 42.41142086 15.74223723 44.94191453 15.78125 47.47265625 C14.812061 77.89269472 14.812061 77.89269472 26.78125 104.28515625 C31.76921615 107.22677731 36.72737012 107.09184248 42.3828125 107.44140625 C45.21875 107.72265625 45.21875 107.72265625 46.21875 108.72265625 C46.3071467 111.09834145 46.33405305 113.44474299 46.31640625 115.8203125 C46.3149913 116.52917099 46.31357635 117.23802948 46.31211853 117.96836853 C46.30650443 120.24067337 46.29394963 122.512881 46.28125 124.78515625 C46.27623681 126.32226421 46.27167359 127.8593737 46.26757812 129.39648438 C46.25653042 133.17191267 46.23925641 136.94726796 46.21875 140.72265625 C45.07277344 140.86960937 43.92679687 141.0165625 42.74609375 141.16796875 C32.13495099 142.30250995 32.13495099 142.30250995 23.44140625 147.8203125 C17.893434 156.45246101 17.49154122 165.7362856 17.21875 175.72265625 C16.23318741 210.20729016 16.23318741 210.20729016 14.21875 221.72265625 C14.08726562 222.48320312 13.95578125 223.24375 13.8203125 224.02734375 C11.60018723 234.4577436 7.46821479 242.93283831 -0.78125 249.72265625 C-1.73 250.50640625 -2.67875 251.29015625 -3.65625 252.09765625 C-11.95115479 256.41100674 -21.27944645 255.97992877 -30.40625 255.84765625 C-31.60121094 255.83863281 -32.79617188 255.82960938 -34.02734375 255.8203125 C-36.94552834 255.79696702 -39.86327776 255.76422281 -42.78125 255.72265625 C-42.80590881 251.75334636 -42.82409023 247.78406591 -42.83618164 243.81469727 C-42.84122057 242.46345239 -42.84805177 241.11221299 -42.85668945 239.76098633 C-42.86877419 237.82245191 -42.87394828 235.88387825 -42.87890625 233.9453125 C-42.88414307 232.77750244 -42.88937988 231.60969238 -42.89477539 230.40649414 C-42.78125 227.72265625 -42.78125 227.72265625 -41.78125 226.72265625 C-38.25837919 226.51854142 -34.74240684 226.37625017 -31.21484375 226.29296875 C-26.64155092 226.10340221 -23.46972501 225.71255645 -19.78125 222.72265625 C-16.88290517 217.13299121 -15.69740993 211.95442261 -15.56347656 205.71142578 C-15.52773529 204.2530278 -15.52773529 204.2530278 -15.49127197 202.76516724 C-15.46837097 201.72246674 -15.44546997 200.67976624 -15.421875 199.60546875 C-15.35789722 197.36585296 -15.29275456 195.12627019 -15.2265625 192.88671875 C-15.12600693 189.38094158 -15.03183814 185.87558891 -14.95800781 182.36914062 C-14.49511903 161.17244149 -12.18348858 143.65376776 3.54296875 127.96484375 C5.41920295 126.57406875 6.93642174 126.13039245 9.21875 125.72265625 C9.21875 125.06265625 9.21875 124.40265625 9.21875 123.72265625 C8.661875 123.47515625 8.105 123.22765625 7.53125 122.97265625 C-0.5225446 118.61925376 -6.84100276 110.96419077 -10.00390625 102.41967773 C-13.88603154 86.49729212 -14.43915113 70.10336539 -15.48754883 53.80078125 C-15.66384118 51.07626333 -15.85238408 48.35309038 -16.0537262 45.63031006 C-16.24057724 43.08859383 -16.40853131 40.5453981 -16.55503845 38.0010376 C-16.85770957 31.12423175 -16.85770957 31.12423175 -20.30883789 25.47167969 C-21.12473389 24.89450195 -21.94062988 24.31732422 -22.78125 23.72265625 C-23.11125 23.39265625 -23.44125 23.06265625 -23.78125 22.72265625 C-25.26763992 22.56610598 -26.76074127 22.47198682 -28.25390625 22.40625 C-29.06351807 22.36814209 -29.87312988 22.33003418 -30.70727539 22.29077148 C-31.74231201 22.24766846 -32.77734863 22.20456543 -33.84375 22.16015625 C-37.123125 22.01578125 -40.4025 21.87140625 -43.78125 21.72265625 C-43.78125 12.48265625 -43.78125 3.24265625 -43.78125 -6.27734375 C-28.96175142 -8.74726018 -12.91650227 -8.53411757 0 0 Z " fill="#FCFDFB" transform="translate(367.78125,131.27734375)"/>
<path d="M0 0 C4.88744836 2.01872867 8.63581055 4.95447948 11.5625 9.375 C13.5104926 14.28732916 13.98584859 18.15316449 12.26953125 23.109375 C9.6242586 28.8533956 5.98842081 33.5579135 0 36 C-4.96596323 36.73780025 -9.89143418 37.06266354 -14.45703125 34.76171875 C-16.44862097 33.27264518 -18.23418046 31.74879959 -20 30 C-20.54140625 29.49597656 -21.0828125 28.99195313 -21.640625 28.47265625 C-24.46884102 25.40875556 -24.92812699 21.64685706 -25.375 17.625 C-24.72169873 11.3097544 -22.29810468 6.75503592 -17.5625 2.5 C-12.11876724 -1.19686329 -6.31630334 -1.15052469 0 0 Z " fill="#F9FCF9" transform="translate(326,238)"/>
<path d="M0 0 C4.79047823 1.97373056 7.92606169 4.60062584 11.0625 8.6875 C12.63751981 14.25257 13.17199216 19.78787335 11.15625 25.3125 C8.31708587 30.37695493 4.47249925 33.97795791 -1 36 C-6.47544041 36.97376637 -11.40469554 36.75082123 -16.375 34.125 C-21.45723237 30.43358431 -24.28375616 24.90490633 -25.40625 18.78515625 C-25.6673393 13.11734272 -23.89221872 9.44846149 -20.51171875 5.07421875 C-14.65897638 -1.17956807 -8.17426105 -1.48368437 0 0 Z " fill="#FAFCFA" transform="translate(200,238)"/>
<path d="M0 0 C3.52190956 2.57370314 5.84773481 4.8021006 7.625 8.875 C8.65664171 15.84103786 8.29093841 21.4978704 4.0546875 27.25390625 C0.18765842 31.63865233 -2.96384349 33.46890994 -8.671875 34.1484375 C-15.20030888 34.41872298 -19.47054002 33.29353423 -24.375 28.875 C-28.8099326 23.55308088 -28.98132261 18.7423886 -28.76953125 11.91015625 C-28.2262825 7.730906 -27.20921923 5.95215231 -24.375 2.875 C-23.941875 2.2975 -23.50875 1.72 -23.0625 1.125 C-16.76783689 -3.53771342 -6.64954428 -3.85103961 0 0 Z " fill="#FAFCF9" transform="translate(267.375,240.125)"/>
</svg>
